<svg class="rich-terminal" viewBox="0 0 994 635.5999999999999" xmlns="http://www.w3.org/2000/svg">
    <!-- Generated with Rich https://www.textualize.io -->
    <style>

    @font-face {
        font-family: "Fira Code";
        src: local("FiraCode-Regular"),
                url("https://cdnjs.cloudflare.com/ajax/libs/firacode/6.2.0/woff2/FiraCode-Regular.woff2") format("woff2"),
                url("https://cdnjs.cloudflare.com/ajax/libs/firacode/6.2.0/woff/FiraCode-Regular.woff") format("woff");
        font-style: normal;
        font-weight: 400;
    }
    @font-face {
        font-family: "Fira Code";
        src: local("FiraCode-Bold"),
                url("https://cdnjs.cloudflare.com/ajax/libs/firacode/6.2.0/woff2/FiraCode-Bold.woff2") format("woff2"),
                url("https://cdnjs.cloudflare.com/ajax/libs/firacode/6.2.0/woff/FiraCode-Bold.woff") format("woff");
        font-style: bold;
        font-weight: 700;
    }

    .terminal-724540619-matrix {
        font-family: Fira Code, monospace;
        font-size: 20px;
        line-height: 24.4px;
        font-variant-east-asian: full-width;
    }

    .terminal-724540619-title {
        font-size: 18px;
        font-weight: bold;
        font-family: arial;
    }

    .terminal-724540619-r1 { fill: #c5c8c6 }
.terminal-724540619-r2 { fill: #e0e0e0 }
.terminal-724540619-r3 { fill: #fea62b;font-weight: bold }
.terminal-724540619-r4 { fill: #368ae9 }
.terminal-724540619-r5 { fill: #e8e6e2;font-weight: bold }
.terminal-724540619-r6 { fill: #272727 }
.terminal-724540619-r7 { fill: #1e1e1e }
.terminal-724540619-r8 { fill: #003054 }
.terminal-724540619-r9 { fill: #ffa62b;font-weight: bold }
.terminal-724540619-r10 { fill: #495259 }
    </style>

    <defs>
    <clipPath id="terminal-724540619-clip-terminal">
      <rect x="0" y="0" width="975.0" height="584.5999999999999" />
    </clipPath>
    <clipPath id="terminal-724540619-line-0">
    <rect x="0" y="1.5" width="976" height="24.65"/>
            </clipPath>
<clipPath id="terminal-724540619-line-1">
    <rect x="0" y="25.9" width="976" height="24.65"/>
            </clipPath>
<clipPath id="terminal-724540619-line-2">
    <rect x="0" y="50.3" width="976" height="24.65"/>
            </clipPath>
<clipPath id="terminal-724540619-line-3">
    <rect x="0" y="74.7" width="976" height="24.65"/>
            </clipPath>
<clipPath id="terminal-724540619-line-4">
    <rect x="0" y="99.1" width="976" height="24.65"/>
            </clipPath>
<clipPath id="terminal-724540619-line-5">
    <rect x="0" y="123.5" width="976" height="24.65"/>
            </clipPath>
<clipPath id="terminal-724540619-line-6">
    <rect x="0" y="147.9" width="976" height="24.65"/>
            </clipPath>
<clipPath id="terminal-724540619-line-7">
    <rect x="0" y="172.3" width="976" height="24.65"/>
            </clipPath>
<clipPath id="terminal-724540619-line-8">
    <rect x="0" y="196.7" width="976" height="24.65"/>
            </clipPath>
<clipPath id="terminal-724540619-line-9">
    <rect x="0" y="221.1" width="976" height="24.65"/>
            </clipPath>
<clipPath id="terminal-724540619-line-10">
    <rect x="0" y="245.5" width="976" height="24.65"/>
            </clipPath>
<clipPath id="terminal-724540619-line-11">
    <rect x="0" y="269.9" width="976" height="24.65"/>
            </clipPath>
<clipPath id="terminal-724540619-line-12">
    <rect x="0" y="294.3" width="976" height="24.65"/>
            </clipPath>
<clipPath id="terminal-724540619-line-13">
    <rect x="0" y="318.7" width="976" height="24.65"/>
            </clipPath>
<clipPath id="terminal-724540619-line-14">
    <rect x="0" y="343.1" width="976" height="24.65"/>
            </clipPath>
<clipPath id="terminal-724540619-line-15">
    <rect x="0" y="367.5" width="976" height="24.65"/>
            </clipPath>
<clipPath id="terminal-724540619-line-16">
    <rect x="0" y="391.9" width="976" height="24.65"/>
            </clipPath>
<clipPath id="terminal-724540619-line-17">
    <rect x="0" y="416.3" width="976" height="24.65"/>
            </clipPath>
<clipPath id="terminal-724540619-line-18">
    <rect x="0" y="440.7" width="976" height="24.65"/>
            </clipPath>
<clipPath id="terminal-724540619-line-19">
    <rect x="0" y="465.1" width="976" height="24.65"/>
            </clipPath>
<clipPath id="terminal-724540619-line-20">
    <rect x="0" y="489.5" width="976" height="24.65"/>
            </clipPath>
<clipPath id="terminal-724540619-line-21">
    <rect x="0" y="513.9" width="976" height="24.65"/>
            </clipPath>
<clipPath id="terminal-724540619-line-22">
    <rect x="0" y="538.3" width="976" height="24.65"/>
            </clipPath>
    </defs>

    <rect fill="#292929" stroke="rgba(255,255,255,0.35)" stroke-width="1" x="1" y="1" width="992" height="633.6" rx="8"/><text class="terminal-724540619-title" fill="#c5c8c6" text-anchor="middle" x="496" y="27">TeaParty</text>
            <g transform="translate(26,22)">
            <circle cx="0" cy="0" r="7" fill="#ff5f57"/>
            <circle cx="22" cy="0" r="7" fill="#febc2e"/>
            <circle cx="44" cy="0" r="7" fill="#28c840"/>
            </g>
        
    <g transform="translate(9, 41)" clip-path="url(#terminal-724540619-clip-terminal)">
    <rect fill="#242f38" x="0" y="1.5" width="12.2" height="24.65" shape-rendering="crispEdges"/><rect fill="#242f38" x="12.2" y="1.5" width="12.2" height="24.65" shape-rendering="crispEdges"/><rect fill="#242f38" x="24.4" y="1.5" width="61" height="24.65" shape-rendering="crispEdges"/><rect fill="#242f38" x="85.4" y="1.5" width="12.2" height="24.65" shape-rendering="crispEdges"/><rect fill="#242f38" x="97.6" y="1.5" width="329.4" height="24.65" shape-rendering="crispEdges"/><rect fill="#242f38" x="427" y="1.5" width="97.6" height="24.65" shape-rendering="crispEdges"/><rect fill="#242f38" x="524.6" y="1.5" width="329.4" height="24.65" shape-rendering="crispEdges"/><rect fill="#242f38" x="854" y="1.5" width="12.2" height="24.65" shape-rendering="crispEdges"/><rect fill="#242f38" x="866.2" y="1.5" width="0" height="24.65" shape-rendering="crispEdges"/><rect fill="#242f38" x="866.2" y="1.5" width="97.6" height="24.65" shape-rendering="crispEdges"/><rect fill="#242f38" x="963.8" y="1.5" width="12.2" height="24.65" shape-rendering="crispEdges"/><rect fill="#1e1e1e" x="0" y="25.9" width="12.2" height="24.65" shape-rendering="crispEdges"/><rect fill="#1e1e1e" x="12.2" y="25.9" width="97.6" height="24.65" shape-rendering="crispEdges"/><rect fill="#1e1e1e" x="109.8" y="25.9" width="158.6" height="24.65" shape-rendering="crispEdges"/><rect fill="#1e1e1e" x="268.4" y="25.9" width="12.2" height="24.65" shape-rendering="crispEdges"/><rect fill="#1e1e1e" x="280.6" y="25.9" width="12.2" height="24.65" shape-rendering="crispEdges"/><rect fill="#1e1e1e" x="292.8" y="25.9" width="12.2" height="24.65" shape-rendering="crispEdges"/><rect fill="#1e1e1e" x="305" y="25.9" width="231.8" height="24.65" shape-rendering="crispEdges"/><rect fill="#1e1e1e" x="536.8" y="25.9" width="427" height="24.65" shape-rendering="crispEdges"/><rect fill="#1e1e1e" x="963.8" y="25.9" width="12.2" height="24.65" shape-rendering="crispEdges"/><rect fill="#1e1e1e" x="0" y="50.3" width="12.2" height="24.65" shape-rendering="crispEdges"/><rect fill="#2d3740" x="12.2" y="50.3" width="36.6" height="24.65" shape-rendering="crispEdges"/><rect fill="#2d3740" x="48.8" y="50.3" width="219.6" height="24.65" shape-rendering="crispEdges"/><rect fill="#1e1e1e" x="268.4" y="50.3" width="12.2" height="24.65" shape-rendering="crispEdges"/><rect fill="#1e1e1e" x="280.6" y="50.3" width="12.2" height="24.65" shape-rendering="crispEdges"/><rect fill="#1e1e1e" x="292.8" y="50.3" width="12.2" height="24.65" shape-rendering="crispEdges"/><rect fill="#242f38" x="305" y="50.3" width="48.8" height="24.65" shape-rendering="crispEdges"/><rect fill="#242f38" x="353.8" y="50.3" width="207.4" height="24.65" shape-rendering="crispEdges"/><rect fill="#242f38" x="561.2" y="50.3" width="341.6" height="24.65" shape-rendering="crispEdges"/><rect fill="#242f38" x="902.8" y="50.3" width="61" height="24.65" shape-rendering="crispEdges"/><rect fill="#1e1e1e" x="963.8" y="50.3" width="12.2" height="24.65" shape-rendering="crispEdges"/><rect fill="#1e1e1e" x="0" y="74.7" width="12.2" height="24.65" shape-rendering="crispEdges"/><rect fill="#524027" x="12.2" y="74.7" width="36.6" height="24.65" shape-rendering="crispEdges"/><rect fill="#524027" x="48.8" y="74.7" width="219.6" height="24.65" shape-rendering="crispEdges"/><rect fill="#1e1e1e" x="268.4" y="74.7" width="12.2" height="24.65" shape-rendering="crispEdges"/><rect fill="#1e1e1e" x="280.6" y="74.7" width="12.2" height="24.65" shape-rendering="crispEdges"/><rect fill="#1e1e1e" x="292.8" y="74.7" width="12.2" height="24.65" shape-rendering="crispEdges"/><rect fill="#4a3920" x="305" y="74.7" width="48.8" height="24.65" shape-rendering="crispEdges"/><rect fill="#4a3920" x="353.8" y="74.7" width="207.4" height="24.65" shape-rendering="crispEdges"/><rect fill="#4a3920" x="561.2" y="74.7" width="341.6" height="24.65" shape-rendering="crispEdges"/><rect fill="#4a3920" x="902.8" y="74.7" width="61" height="24.65" shape-rendering="crispEdges"/><rect fill="#1e1e1e" x="963.8" y="74.7" width="12.2" height="24.65" shape-rendering="crispEdges"/><rect fill="#1e1e1e" x="0" y="99.1" width="12.2" height="24.65" shape-rendering="crispEdges"/><rect fill="#272727" x="12.2" y="99.1" width="36.6" height="24.65" shape-rendering="crispEdges"/><rect fill="#272727" x="48.8" y="99.1" width="219.6" height="24.65" shape-rendering="crispEdges"/><rect fill="#1e1e1e" x="268.4" y="99.1" width="12.2" height="24.65" shape-rendering="crispEdges"/><rect fill="#1e1e1e" x="280.6" y="99.1" width="12.2" height="24.65" shape-rendering="crispEdges"/><rect fill="#1e1e1e" x="292.8" y="99.1" width="12.2" height="24.65" shape-rendering="crispEdges"/><rect fill="#1e1e1e" x="305" y="99.1" width="48.8" height="24.65" shape-rendering="crispEdges"/><rect fill="#1e1e1e" x="353.8" y="99.1" width="207.4" height="24.65" shape-rendering="crispEdges"/><rect fill="#1e1e1e" x="561.2" y="99.1" width="341.6" height="24.65" shape-rendering="crispEdges"/><rect fill="#1e1e1e" x="902.8" y="99.1" width="61" height="24.65" shape-rendering="crispEdges"/><rect fill="#1e1e1e" x="963.8" y="99.1" width="12.2" height="24.65" shape-rendering="crispEdges"/><rect fill="#1e1e1e" x="0" y="123.5" width="12.2" height="24.65" shape-rendering="crispEdges"/><rect fill="#272727" x="12.2" y="123.5" width="36.6" height="24.65" shape-rendering="crispEdges"/><rect fill="#272727" x="48.8" y="123.5" width="219.6" height="24.65" shape-rendering="crispEdges"/><rect fill="#1e1e1e" x="268.4" y="123.5" width="12.2" height="24.65" shape-rendering="crispEdges"/><rect fill="#1e1e1e" x="280.6" y="123.5" width="12.2" height="24.65" shape-rendering="crispEdges"/><rect fill="#1e1e1e" x="292.8" y="123.5" width="12.2" height="24.65" shape-rendering="crispEdges"/><rect fill="#1e1e1e" x="305" y="123.5" width="48.8" height="24.65" shape-rendering="crispEdges"/><rect fill="#1e1e1e" x="353.8" y="123.5" width="207.4" height="24.65" shape-rendering="crispEdges"/><rect fill="#1e1e1e" x="561.2" y="123.5" width="341.6" height="24.65" shape-rendering="crispEdges"/><rect fill="#1e1e1e" x="902.8" y="123.5" width="61" height="24.65" shape-rendering="crispEdges"/><rect fill="#1e1e1e" x="963.8" y="123.5" width="12.2" height="24.65" shape-rendering="crispEdges"/><rect fill="#1e1e1e" x="0" y="147.9" width="12.2" height="24.65" shape-rendering="crispEdges"/><rect fill="#272727" x="12.2" y="147.9" width="256.2" height="24.65" shape-rendering="crispEdges"/><rect fill="#1e1e1e" x="268.4" y="147.9" width="12.2" height="24.65" shape-rendering="crispEdges"/><rect fill="#1e1e1e" x="280.6" y="147.9" width="12.2" height="24.65" shape-rendering="crispEdges"/><rect fill="#1e1e1e" x="292.8" y="147.9" width="12.2" height="24.65" shape-rendering="crispEdges"/><rect fill="#1e1e1e" x="305" y="147.9" width="48.8" height="24.65" shape-rendering="crispEdges"/><rect fill="#1e1e1e" x="353.8" y="147.9" width="207.4" height="24.65" shape-rendering="crispEdges"/><rect fill="#1e1e1e" x="561.2" y="147.9" width="341.6" height="24.65" shape-rendering="crispEdges"/><rect fill="#1e1e1e" x="902.8" y="147.9" width="61" height="24.65" shape-rendering="crispEdges"/><rect fill="#1e1e1e" x="963.8" y="147.9" width="12.2" height="24.65" shape-rendering="crispEdges"/><rect fill="#1e1e1e" x="0" y="172.3" width="12.2" height="24.65" shape-rendering="crispEdges"/><rect fill="#272727" x="12.2" y="172.3" width="256.2" height="24.65" shape-rendering="crispEdges"/><rect fill="#1e1e1e" x="268.4" y="172.3" width="12.2" height="24.65" shape-rendering="crispEdges"/><rect fill="#1e1e1e" x="280.6" y="172.3" width="12.2" height="24.65" shape-rendering="crispEdges"/><rect fill="#1e1e1e" x="292.8" y="172.3" width="12.2" height="24.65" shape-rendering="crispEdges"/><rect fill="#1e1e1e" x="305" y="172.3" width="658.8" height="24.65" shape-rendering="crispEdges"/><rect fill="#1e1e1e" x="963.8" y="172.3" width="12.2" height="24.65" shape-rendering="crispEdges"/><rect fill="#1e1e1e" x="0" y="196.7" width="12.2" height="24.65" shape-rendering="crispEdges"/><rect fill="#272727" x="12.2" y="196.7" width="256.2" height="24.65" shape-rendering="crispEdges"/><rect fill="#1e1e1e" x="268.4" y="196.7" width="12.2" height="24.65" shape-rendering="crispEdges"/><rect fill="#1e1e1e" x="280.6" y="196.7" width="12.2" height="24.65" shape-rendering="crispEdges"/><rect fill="#1e1e1e" x="292.8" y="196.7" width="12.2" height="24.65" shape-rendering="crispEdges"/><rect fill="#1e1e1e" x="305" y="196.7" width="658.8" height="24.65" shape-rendering="crispEdges"/><rect fill="#1e1e1e" x="963.8" y="196.7" width="12.2" height="24.65" shape-rendering="crispEdges"/><rect fill="#1e1e1e" x="0" y="221.1" width="12.2" height="24.65" shape-rendering="crispEdges"/><rect fill="#272727" x="12.2" y="221.1" width="256.2" height="24.65" shape-rendering="crispEdges"/><rect fill="#1e1e1e" x="268.4" y="221.1" width="12.2" height="24.65" shape-rendering="crispEdges"/><rect fill="#1e1e1e" x="280.6" y="221.1" width="12.2" height="24.65" shape-rendering="crispEdges"/><rect fill="#1e1e1e" x="292.8" y="221.1" width="12.2" height="24.65" shape-rendering="crispEdges"/><rect fill="#1e1e1e" x="305" y="221.1" width="658.8" height="24.65" shape-rendering="crispEdges"/><rect fill="#1e1e1e" x="963.8" y="221.1" width="12.2" height="24.65" shape-rendering="crispEdges"/><rect fill="#1e1e1e" x="0" y="245.5" width="12.2" height="24.65" shape-rendering="crispEdges"/><rect fill="#272727" x="12.2" y="245.5" width="256.2" height="24.65" shape-rendering="crispEdges"/><rect fill="#1e1e1e" x="268.4" y="245.5" width="12.2" height="24.65" shape-rendering="crispEdges"/><rect fill="#1e1e1e" x="280.6" y="245.5" width="12.2" height="24.65" shape-rendering="crispEdges"/><rect fill="#1e1e1e" x="292.8" y="245.5" width="12.2" height="24.65" shape-rendering="crispEdges"/><rect fill="#1e1e1e" x="305" y="245.5" width="658.8" height="24.65" shape-rendering="crispEdges"/><rect fill="#1e1e1e" x="963.8" y="245.5" width="12.2" height="24.65" shape-rendering="crispEdges"/><rect fill="#1e1e1e" x="0" y="269.9" width="12.2" height="24.65" shape-rendering="crispEdges"/><rect fill="#272727" x="12.2" y="269.9" width="256.2" height="24.65" shape-rendering="crispEdges"/><rect fill="#1e1e1e" x="268.4" y="269.9" width="12.2" height="24.65" shape-rendering="crispEdges"/><rect fill="#1e1e1e" x="280.6" y="269.9" width="12.2" height="24.65" shape-rendering="crispEdges"/><rect fill="#1e1e1e" x="292.8" y="269.9" width="12.2" height="24.65" shape-rendering="crispEdges"/><rect fill="#1e1e1e" x="305" y="269.9" width="658.8" height="24.65" shape-rendering="crispEdges"/><rect fill="#1e1e1e" x="963.8" y="269.9" width="12.2" height="24.65" shape-rendering="crispEdges"/><rect fill="#1e1e1e" x="0" y="294.3" width="12.2" height="24.65" shape-rendering="crispEdges"/><rect fill="#272727" x="12.2" y="294.3" width="256.2" height="24.65" shape-rendering="crispEdges"/><rect fill="#1e1e1e" x="268.4" y="294.3" width="12.2" height="24.65" shape-rendering="crispEdges"/><rect fill="#1e1e1e" x="280.6" y="294.3" width="12.2" height="24.65" shape-rendering="crispEdges"/><rect fill="#1e1e1e" x="292.8" y="294.3" width="12.2" height="24.65" shape-rendering="crispEdges"/><rect fill="#1e1e1e" x="305" y="294.3" width="658.8" height="24.65" shape-rendering="crispEdges"/><rect fill="#1e1e1e" x="963.8" y="294.3" width="12.2" height="24.65" shape-rendering="crispEdges"/><rect fill="#1e1e1e" x="0" y="318.7" width="12.2" height="24.65" shape-rendering="crispEdges"/><rect fill="#272727" x="12.2" y="318.7" width="256.2" height="24.65" shape-rendering="crispEdges"/><rect fill="#1e1e1e" x="268.4" y="318.7" width="12.2" height="24.65" shape-rendering="crispEdges"/><rect fill="#1e1e1e" x="280.6" y="318.7" width="12.2" height="24.65" shape-rendering="crispEdges"/><rect fill="#1e1e1e" x="292.8" y="318.7" width="12.2" height="24.65" shape-rendering="crispEdges"/><rect fill="#1e1e1e" x="305" y="318.7" width="658.8" height="24.65" shape-rendering="crispEdges"/><rect fill="#1e1e1e" x="963.8" y="318.7" width="12.2" height="24.65" shape-rendering="crispEdges"/><rect fill="#1e1e1e" x="0" y="343.1" width="12.2" height="24.65" shape-rendering="crispEdges"/><rect fill="#272727" x="12.2" y="343.1" width="256.2" height="24.65" shape-rendering="crispEdges"/><rect fill="#1e1e1e" x="268.4" y="343.1" width="12.2" height="24.65" shape-rendering="crispEdges"/><rect fill="#1e1e1e" x="280.6" y="343.1" width="12.2" height="24.65" shape-rendering="crispEdges"/><rect fill="#1e1e1e" x="292.8" y="343.1" width="12.2" height="24.65" shape-rendering="crispEdges"/><rect fill="#1e1e1e" x="305" y="343.1" width="658.8" height="24.65" shape-rendering="crispEdges"/><rect fill="#1e1e1e" x="963.8" y="343.1" width="12.2" height="24.65" shape-rendering="crispEdges"/><rect fill="#1e1e1e" x="0" y="367.5" width="12.2" height="24.65" shape-rendering="crispEdges"/><rect fill="#003054" x="12.2" y="367.5" width="12.2" height="24.65" shape-rendering="crispEdges"/><rect fill="#003054" x="24.4" y="367.5" width="12.2" height="24.65" shape-rendering="crispEdges"/><rect fill="#003054" x="36.6" y="367.5" width="12.2" height="24.65" shape-rendering="crispEdges"/><rect fill="#003054" x="48.8" y="367.5" width="12.2" height="24.65" shape-rendering="crispEdges"/><rect fill="#003054" x="61" y="367.5" width="12.2" height="24.65" shape-rendering="crispEdges"/><rect fill="#003054" x="73.2" y="367.5" width="12.2" height="24.65" shape-rendering="crispEdges"/><rect fill="#003054" x="85.4" y="367.5" width="12.2" height="24.65" shape-rendering="crispEdges"/><rect fill="#003054" x="97.6" y="367.5" width="12.2" height="24.65" shape-rendering="crispEdges"/><rect fill="#003054" x="109.8" y="367.5" width="12.2" height="24.65" shape-rendering="crispEdges"/><rect fill="#003054" x="122" y="367.5" width="12.2" height="24.65" shape-rendering="crispEdges"/><rect fill="#003054" x="134.2" y="367.5" width="12.2" height="24.65" shape-rendering="crispEdges"/><rect fill="#003054" x="146.4" y="367.5" width="12.2" height="24.65" shape-rendering="crispEdges"/><rect fill="#000000" x="158.6" y="367.5" width="12.2" height="24.65" shape-rendering="crispEdges"/><rect fill="#000000" x="170.8" y="367.5" width="12.2" height="24.65" shape-rendering="crispEdges"/><rect fill="#000000" x="183" y="367.5" width="12.2" height="24.65" shape-rendering="crispEdges"/><rect fill="#000000" x="195.2" y="367.5" width="12.2" height="24.65" shape-rendering="crispEdges"/><rect fill="#000000" x="207.4" y="367.5" width="12.2" height="24.65" shape-rendering="crispEdges"/><rect fill="#000000" x="219.6" y="367.5" width="12.2" height="24.65" shape-rendering="crispEdges"/><rect fill="#000000" x="231.8" y="367.5" width="12.2" height="24.65" shape-rendering="crispEdges"/><rect fill="#000000" x="244" y="367.5" width="12.2" height="24.65" shape-rendering="crispEdges"/><rect fill="#000000" x="256.2" y="367.5" width="12.2" height="24.65" shape-rendering="crispEdges"/><rect fill="#1e1e1e" x="268.4" y="367.5" width="12.2" height="24.65" shape-rendering="crispEdges"/><rect fill="#1e1e1e" x="280.6" y="367.5" width="12.2" height="24.65" shape-rendering="crispEdges"/><rect fill="#1e1e1e" x="292.8" y="367.5" width="12.2" height="24.65" shape-rendering="crispEdges"/><rect fill="#003054" x="305" y="367.5" width="12.2" height="24.65" shape-rendering="crispEdges"/><rect fill="#003054" x="317.2" y="367.5" width="12.2" height="24.65" shape-rendering="crispEdges"/><rect fill="#003054" x="329.4" y="367.5" width="12.2" height="24.65" shape-rendering="crispEdges"/><rect fill="#003054" x="341.6" y="367.5" width="12.2" height="24.65" shape-rendering="crispEdges"/><rect fill="#003054" x="353.8" y="367.5" width="12.2" height="24.65" shape-rendering="crispEdges"/><rect fill="#003054" x="366" y="367.5" width="12.2" height="24.65" shape-rendering="crispEdges"/><rect fill="#003054" x="378.2" y="367.5" width="12.2" height="24.65" shape-rendering="crispEdges"/><rect fill="#003054" x="390.4" y="367.5" width="12.2" height="24.65" shape-rendering="crispEdges"/><rect fill="#003054" x="402.6" y="367.5" width="12.2" height="24.65" shape-rendering="crispEdges"/><rect fill="#003054" x="414.8" y="367.5" width="12.2" height="24.65" shape-rendering="crispEdges"/><rect fill="#003054" x="427" y="367.5" width="12.2" height="24.65" shape-rendering="crispEdges"/><rect fill="#003054" x="439.2" y="367.5" width="12.2" height="24.65" shape-rendering="crispEdges"/><rect fill="#003054" x="451.4" y="367.5" width="12.2" height="24.65" shape-rendering="crispEdges"/><rect fill="#003054" x="463.6" y="367.5" width="12.2" height="24.65" shape-rendering="crispEdges"/><rect fill="#003054" x="475.8" y="367.5" width="12.2" height="24.65" shape-rendering="crispEdges"/><rect fill="#003054" x="488" y="367.5" width="12.2" height="24.65" shape-rendering="crispEdges"/><rect fill="#003054" x="500.2" y="367.5" width="12.2" height="24.65" shape-rendering="crispEdges"/><rect fill="#003054" x="512.4" y="367.5" width="12.2" height="24.65" shape-rendering="crispEdges"/><rect fill="#003054" x="524.6" y="367.5" width="12.2" height="24.65" shape-rendering="crispEdges"/><rect fill="#003054" x="536.8" y="367.5" width="12.2" height="24.65" shape-rendering="crispEdges"/><rect fill="#003054" x="549" y="367.5" width="12.2" height="24.65" shape-rendering="crispEdges"/><rect fill="#003054" x="561.2" y="367.5" width="12.2" height="24.65" shape-rendering="crispEdges"/><rect fill="#003054" x="573.4" y="367.5" width="12.2" height="24.65" shape-rendering="crispEdges"/><rect fill="#003054" x="585.6" y="367.5" width="12.2" height="24.65" shape-rendering="crispEdges"/><rect fill="#003054" x="597.8" y="367.5" width="12.2" height="24.65" shape-rendering="crispEdges"/><rect fill="#003054" x="610" y="367.5" width="12.2" height="24.65" shape-rendering="crispEdges"/><rect fill="#003054" x="622.2" y="367.5" width="12.2" height="24.65" shape-rendering="crispEdges"/><rect fill="#003054" x="634.4" y="367.5" width="12.2" height="24.65" shape-rendering="crispEdges"/><rect fill="#003054" x="646.6" y="367.5" width="12.2" height="24.65" shape-rendering="crispEdges"/><rect fill="#003054" x="658.8" y="367.5" width="12.2" height="24.65" shape-rendering="crispEdges"/><rect fill="#003054" x="671" y="367.5" width="12.2" height="24.65" shape-rendering="crispEdges"/><rect fill="#003054" x="683.2" y="367.5" width="12.2" height="24.65" shape-rendering="crispEdges"/><rect fill="#003054" x="695.4" y="367.5" width="12.2" height="24.65" shape-rendering="crispEdges"/><rect fill="#003054" x="707.6" y="367.5" width="12.2" height="24.65" shape-rendering="crispEdges"/><rect fill="#003054" x="719.8" y="367.5" width="12.2" height="24.65" shape-rendering="crispEdges"/><rect fill="#003054" x="732" y="367.5" width="12.2" height="24.65" shape-rendering="crispEdges"/><rect fill="#003054" x="744.2" y="367.5" width="12.2" height="24.65" shape-rendering="crispEdges"/><rect fill="#003054" x="756.4" y="367.5" width="12.2" height="24.65" shape-rendering="crispEdges"/><rect fill="#003054" x="768.6" y="367.5" width="12.2" height="24.65" shape-rendering="crispEdges"/><rect fill="#003054" x="780.8" y="367.5" width="12.2" height="24.65" shape-rendering="crispEdges"/><rect fill="#003054" x="793" y="367.5" width="12.2" height="24.65" shape-rendering="crispEdges"/><rect fill="#003054" x="805.2" y="367.5" width="12.2" height="24.65" shape-rendering="crispEdges"/><rect fill="#003054" x="817.4" y="367.5" width="12.2" height="24.65" shape-rendering="crispEdges"/><rect fill="#003054" x="829.6" y="367.5" width="12.2" height="24.65" shape-rendering="crispEdges"/><rect fill="#003054" x="841.8" y="367.5" width="12.2" height="24.65" shape-rendering="crispEdges"/><rect fill="#003054" x="854" y="367.5" width="12.2" height="24.65" shape-rendering="crispEdges"/><rect fill="#003054" x="866.2" y="367.5" width="12.2" height="24.65" shape-rendering="crispEdges"/><rect fill="#000000" x="878.4" y="367.5" width="12.2" height="24.65" shape-rendering="crispEdges"/><rect fill="#000000" x="890.6" y="367.5" width="12.2" height="24.65" shape-rendering="crispEdges"/><rect fill="#000000" x="902.8" y="367.5" width="12.2" height="24.65" shape-rendering="crispEdges"/><rect fill="#000000" x="915" y="367.5" width="12.2" height="24.65" shape-rendering="crispEdges"/><rect fill="#000000" x="927.2" y="367.5" width="12.2" height="24.65" shape-rendering="crispEdges"/><rect fill="#000000" x="939.4" y="367.5" width="12.2" height="24.65" shape-rendering="crispEdges"/><rect fill="#000000" x="951.6" y="367.5" width="12.2" height="24.65" shape-rendering="crispEdges"/><rect fill="#1e1e1e" x="963.8" y="367.5" width="12.2" height="24.65" shape-rendering="crispEdges"/><rect fill="#1e1e1e" x="0" y="391.9" width="976" height="24.65" shape-rendering="crispEdges"/><rect fill="#1e1e1e" x="0" y="416.3" width="12.2" height="24.65" shape-rendering="crispEdges"/><rect fill="#1e1e1e" x="12.2" y="416.3" width="292.8" height="24.65" shape-rendering="crispEdges"/><rect fill="#1e1e1e" x="305" y="416.3" width="658.8" height="24.65" shape-rendering="crispEdges"/><rect fill="#1e1e1e" x="963.8" y="416.3" width="12.2" height="24.65" shape-rendering="crispEdges"/><rect fill="#1e1e1e" x="0" y="440.7" width="12.2" height="24.65" shape-rendering="crispEdges"/><rect fill="#1e1e1e" x="12.2" y="440.7" width="12.2" height="24.65" shape-rendering="crispEdges"/><rect fill="#1e1e1e" x="24.4" y="440.7" width="927.2" height="24.65" shape-rendering="crispEdges"/><rect fill="#1e1e1e" x="951.6" y="440.7" width="12.2" height="24.65" shape-rendering="crispEdges"/><rect fill="#1e1e1e" x="963.8" y="440.7" width="12.2" height="24.65" shape-rendering="crispEdges"/><rect fill="#1e1e1e" x="0" y="465.1" width="12.2" height="24.65" shape-rendering="crispEdges"/><rect fill="#1e1e1e" x="12.2" y="465.1" width="12.2" height="24.65" shape-rendering="crispEdges"/><rect fill="#1e1e1e" x="24.4" y="465.1" width="634.4" height="24.65" shape-rendering="crispEdges"/><rect fill="#1e1e1e" x="658.8" y="465.1" width="292.8" height="24.65" shape-rendering="crispEdges"/><rect fill="#1e1e1e" x="951.6" y="465.1" width="12.2" height="24.65" shape-rendering="crispEdges"/><rect fill="#1e1e1e" x="963.8" y="465.1" width="12.2" height="24.65" shape-rendering="crispEdges"/><rect fill="#1e1e1e" x="0" y="489.5" width="976" height="24.65" shape-rendering="crispEdges"/><rect fill="#1e1e1e" x="0" y="513.9" width="976" height="24.65" shape-rendering="crispEdges"/><rect fill="#1e1e1e" x="0" y="538.3" width="561.2" height="24.65" shape-rendering="crispEdges"/><rect fill="#1e1e1e" x="561.2" y="538.3" width="414.8" height="24.65" shape-rendering="crispEdges"/><rect fill="#242f38" x="0" y="562.7" width="36.6" height="24.65" shape-rendering="crispEdges"/><rect fill="#242f38" x="36.6" y="562.7" width="146.4" height="24.65" shape-rendering="crispEdges"/><rect fill="#242f38" x="183" y="562.7" width="36.6" height="24.65" shape-rendering="crispEdges"/><rect fill="#242f38" x="219.6" y="562.7" width="146.4" height="24.65" shape-rendering="crispEdges"/><rect fill="#242f38" x="366" y="562.7" width="36.6" height="24.65" shape-rendering="crispEdges"/><rect fill="#242f38" x="402.6" y="562.7" width="146.4" height="24.65" shape-rendering="crispEdges"/><rect fill="#242f38" x="549" y="562.7" width="36.6" height="24.65" shape-rendering="crispEdges"/><rect fill="#242f38" x="585.6" y="562.7" width="97.6" height="24.65" shape-rendering="crispEdges"/><rect fill="#242f38" x="683.2" y="562.7" width="36.6" height="24.65" shape-rendering="crispEdges"/><rect fill="#242f38" x="719.8" y="562.7" width="61" height="24.65" shape-rendering="crispEdges"/><rect fill="#242f38" x="780.8" y="562.7" width="36.6" height="24.65" shape-rendering="crispEdges"/><rect fill="#242f38" x="817.4" y="562.7" width="12.2" height="24.65" shape-rendering="crispEdges"/><rect fill="#242f38" x="829.6" y="562.7" width="12.2" height="24.65" shape-rendering="crispEdges"/><rect fill="#242f38" x="841.8" y="562.7" width="24.4" height="24.65" shape-rendering="crispEdges"/><rect fill="#242f38" x="866.2" y="562.7" width="36.6" height="24.65" shape-rendering="crispEdges"/><rect fill="#242f38" x="902.8" y="562.7" width="61" height="24.65" shape-rendering="crispEdges"/><rect fill="#242f38" x="963.8" y="562.7" width="12.2" height="24.65" shape-rendering="crispEdges"/>
    <g class="terminal-724540619-matrix">
    <text class="terminal-724540619-r2" x="12.2" y="20" textLength="12.2" clip-path="url(#terminal-724540619-line-0)">⭘</text><text class="terminal-724540619-r2" x="427" y="20" textLength="97.6" clip-path="url(#terminal-724540619-line-0)">TeaParty</text><text class="terminal-724540619-r1" x="976" y="20" textLength="12.2" clip-path="url(#terminal-724540619-line-0)">
</text><text class="terminal-724540619-r3" x="12.2" y="44.4" textLength="97.6" clip-path="url(#terminal-724540619-line-1)">PROJECTS</text><text class="terminal-724540619-r4" x="280.6" y="44.4" textLength="12.2" clip-path="url(#terminal-724540619-line-1)">▎</text><text class="terminal-724540619-r3" x="305" y="44.4" textLength="231.8" clip-path="url(#terminal-724540619-line-1)">SESSIONS&#160;(teaparty)</text><text class="terminal-724540619-r1" x="976" y="44.4" textLength="12.2" clip-path="url(#terminal-724540619-line-1)">
</text><text class="terminal-724540619-r3" x="48.8" y="68.8" textLength="219.6" clip-path="url(#terminal-724540619-line-2)">&#160;Project&#160;&#160;&#160;&#160;&#160;&#160;&#160;&#160;&#160;&#160;</text><text class="terminal-724540619-r4" x="280.6" y="68.8" textLength="12.2" clip-path="url(#terminal-724540619-line-2)">▎</text><text class="terminal-724540619-r3" x="353.8" y="68.8" textLength="207.4" clip-path="url(#terminal-724540619-line-2)">&#160;Session&#160;&#160;&#160;&#160;&#160;&#160;&#160;&#160;&#160;</text><text class="terminal-724540619-r3" x="561.2" y="68.8" textLength="341.6" clip-path="url(#terminal-724540619-line-2)">&#160;State&#160;&#160;&#160;&#160;&#160;&#160;&#160;&#160;&#160;&#160;&#160;&#160;&#160;&#160;&#160;&#160;&#160;&#160;&#160;&#160;&#160;&#160;</text><text class="terminal-724540619-r3" x="902.8" y="68.8" textLength="61" clip-path="url(#terminal-724540619-line-2)">&#160;Idle</text><text class="terminal-724540619-r1" x="976" y="68.8" textLength="12.2" clip-path="url(#terminal-724540619-line-2)">
</text><text class="terminal-724540619-r5" x="48.8" y="93.2" textLength="219.6" clip-path="url(#terminal-724540619-line-3)">&#160;teaparty&#160;&#160;&#160;&#160;&#160;&#160;&#160;&#160;&#160;</text><text class="terminal-724540619-r4" x="280.6" y="93.2" textLength="12.2" clip-path="url(#terminal-724540619-line-3)">▎</text><text class="terminal-724540619-r2" x="305" y="93.2" textLength="48.8" clip-path="url(#terminal-724540619-line-3)">&#160;▶&#160;&#160;</text><text class="terminal-724540619-r2" x="353.8" y="93.2" textLength="207.4" clip-path="url(#terminal-724540619-line-3)">&#160;20260314-091522&#160;</text><text class="terminal-724540619-r2" x="561.2" y="93.2" textLength="341.6" clip-path="url(#terminal-724540619-line-3)">&#160;execution/WORK_IN_PROGRESS&#160;</text><text class="terminal-724540619-r2" x="902.8" y="93.2" textLength="61" clip-path="url(#terminal-724540619-line-3)">&#160;45s&#160;</text><text class="terminal-724540619-r1" x="976" y="93.2" textLength="12.2" clip-path="url(#terminal-724540619-line-3)">
</text><text class="terminal-724540619-r2" x="48.8" y="117.6" textLength="219.6" clip-path="url(#terminal-724540619-line-4)">&#160;hierarchical-memo</text><text class="terminal-724540619-r4" x="280.6" y="117.6" textLength="12.2" clip-path="url(#terminal-724540619-line-4)">▎</text><text class="terminal-724540619-r2" x="305" y="117.6" textLength="36.6" clip-path="url(#terminal-724540619-line-4)">&#160;⏳&#160;</text><text class="terminal-724540619-r2" x="353.8" y="117.6" textLength="207.4" clip-path="url(#terminal-724540619-line-4)">&#160;20260314-083012&#160;</text><text class="terminal-724540619-r2" x="561.2" y="117.6" textLength="341.6" clip-path="url(#terminal-724540619-line-4)">&#160;planning/PLAN_ASSERT&#160;&#160;&#160;&#160;&#160;&#160;&#160;</text><text class="terminal-724540619-r2" x="902.8" y="117.6" textLength="61" clip-path="url(#terminal-724540619-line-4)">&#160;10m&#160;</text><text class="terminal-724540619-r1" x="976" y="117.6" textLength="12.2" clip-path="url(#terminal-724540619-line-4)">
</text><text class="terminal-724540619-r2" x="48.8" y="142" textLength="219.6" clip-path="url(#terminal-724540619-line-5)">&#160;agentic-memory&#160;&#160;&#160;</text><text class="terminal-724540619-r4" x="280.6" y="142" textLength="12.2" clip-path="url(#terminal-724540619-line-5)">▎</text><text class="terminal-724540619-r2" x="305" y="142" textLength="48.8" clip-path="url(#terminal-724540619-line-5)">&#160;✓&#160;&#160;</text><text class="terminal-724540619-r2" x="353.8" y="142" textLength="207.4" clip-path="url(#terminal-724540619-line-5)">&#160;20260313-211547&#160;</text><text class="terminal-724540619-r2" x="561.2" y="142" textLength="341.6" clip-path="url(#terminal-724540619-line-5)">&#160;COMPLETED_WORK&#160;&#160;&#160;&#160;&#160;&#160;&#160;&#160;&#160;&#160;&#160;&#160;&#160;</text><text class="terminal-724540619-r2" x="902.8" y="142" textLength="61" clip-path="url(#terminal-724540619-line-5)">&#160;10h4</text><text class="terminal-724540619-r1" x="976" y="142" textLength="12.2" clip-path="url(#terminal-724540619-line-5)">
</text><text class="terminal-724540619-r4" x="280.6" y="166.4" textLength="12.2" clip-path="url(#terminal-724540619-line-6)">▎</text><text class="terminal-724540619-r2" x="305" y="166.4" textLength="48.8" clip-path="url(#terminal-724540619-line-6)">&#160;✓&#160;&#160;</text><text class="terminal-724540619-r2" x="353.8" y="166.4" textLength="207.4" clip-path="url(#terminal-724540619-line-6)">&#160;20260313-184205&#160;</text><text class="terminal-724540619-r2" x="561.2" y="166.4" textLength="341.6" clip-path="url(#terminal-724540619-line-6)">&#160;COMPLETED_WORK&#160;&#160;&#160;&#160;&#160;&#160;&#160;&#160;&#160;&#160;&#160;&#160;&#160;</text><text class="terminal-724540619-r2" x="902.8" y="166.4" textLength="61" clip-path="url(#terminal-724540619-line-6)">&#160;14h4</text><text class="terminal-724540619-r1" x="976" y="166.4" textLength="12.2" clip-path="url(#terminal-724540619-line-6)">
</text><text class="terminal-724540619-r4" x="280.6" y="190.8" textLength="12.2" clip-path="url(#terminal-724540619-line-7)">▎</text><text class="terminal-724540619-r1" x="976" y="190.8" textLength="12.2" clip-path="url(#terminal-724540619-line-7)">
</text><text class="terminal-724540619-r4" x="280.6" y="215.2" textLength="12.2" clip-path="url(#terminal-724540619-line-8)">▎</text><text class="terminal-724540619-r1" x="976" y="215.2" textLength="12.2" clip-path="url(#terminal-724540619-line-8)">
</text><text class="terminal-724540619-r4" x="280.6" y="239.6" textLength="12.2" clip-path="url(#terminal-724540619-line-9)">▎</text><text class="terminal-724540619-r1" x="976" y="239.6" textLength="12.2" clip-path="url(#terminal-724540619-line-9)">
</text><text class="terminal-724540619-r4" x="280.6" y="264" textLength="12.2" clip-path="url(#terminal-724540619-line-10)">▎</text><text class="terminal-724540619-r1" x="976" y="264" textLength="12.2" clip-path="url(#terminal-724540619-line-10)">
</text><text class="terminal-724540619-r4" x="280.6" y="288.4" textLength="12.2" clip-path="url(#terminal-724540619-line-11)">▎</text><text class="terminal-724540619-r1" x="976" y="288.4" textLength="12.2" clip-path="url(#terminal-724540619-line-11)">
</text><text class="terminal-724540619-r4" x="280.6" y="312.8" textLength="12.2" clip-path="url(#terminal-724540619-line-12)">▎</text><text class="terminal-724540619-r1" x="976" y="312.8" textLength="12.2" clip-path="url(#terminal-724540619-line-12)">
</text><text class="terminal-724540619-r4" x="280.6" y="337.2" textLength="12.2" clip-path="url(#terminal-724540619-line-13)">▎</text><text class="terminal-724540619-r1" x="976" y="337.2" textLength="12.2" clip-path="url(#terminal-724540619-line-13)">
</text><text class="terminal-724540619-r4" x="280.6" y="361.6" textLength="12.2" clip-path="url(#terminal-724540619-line-14)">▎</text><text class="terminal-724540619-r1" x="976" y="361.6" textLength="12.2" clip-path="url(#terminal-724540619-line-14)">
</text><text class="terminal-724540619-r4" x="280.6" y="386" textLength="12.2" clip-path="url(#terminal-724540619-line-15)">▎</text><text class="terminal-724540619-r8" x="878.4" y="386" textLength="12.2" clip-path="url(#terminal-724540619-line-15)">▏</text><text class="terminal-724540619-r1" x="976" y="386" textLength="12.2" clip-path="url(#terminal-724540619-line-15)">
</text><text class="terminal-724540619-r4" x="0" y="410.4" textLength="976" clip-path="url(#terminal-724540619-line-16)">▔▔▔▔▔▔▔▔▔▔▔▔▔▔▔▔▔▔▔▔▔▔▔▔▔▔▔▔▔▔▔▔▔▔▔▔▔▔▔▔▔▔▔▔▔▔▔▔▔▔▔▔▔▔▔▔▔▔▔▔▔▔▔▔▔▔▔▔▔▔▔▔▔▔▔▔▔▔▔▔</text><text class="terminal-724540619-r1" x="976" y="410.4" textLength="12.2" clip-path="url(#terminal-724540619-line-16)">
</text><text class="terminal-724540619-r3" x="12.2" y="434.8" textLength="292.8" clip-path="url(#terminal-724540619-line-17)">PROMPT&#160;(20260314-091522)</text><text class="terminal-724540619-r1" x="976" y="434.8" textLength="12.2" clip-path="url(#terminal-724540619-line-17)">
</text><text class="terminal-724540619-r2" x="24.4" y="459.2" textLength="927.2" clip-path="url(#terminal-724540619-line-18)">&#160;&#160;Implement&#160;skill&#160;lookup&#160;routing&#160;for&#160;the&#160;planning&#160;phase&#160;—&#160;System&#160;1&#160;fast&#160;path</text><text class="terminal-724540619-r1" x="976" y="459.2" textLength="12.2" clip-path="url(#terminal-724540619-line-18)">
</text><text class="terminal-724540619-r2" x="24.4" y="483.6" textLength="634.4" clip-path="url(#terminal-724540619-line-19)">that&#160;checks&#160;skill&#160;library&#160;before&#160;cold-start&#160;planning</text><text class="terminal-724540619-r1" x="976" y="483.6" textLength="12.2" clip-path="url(#terminal-724540619-line-19)">
</text><text class="terminal-724540619-r1" x="976" y="508" textLength="12.2" clip-path="url(#terminal-724540619-line-20)">
</text><text class="terminal-724540619-r1" x="976" y="532.4" textLength="12.2" clip-path="url(#terminal-724540619-line-21)">
</text><text class="terminal-724540619-r2" x="0" y="556.8" textLength="561.2" clip-path="url(#terminal-724540619-line-22)">Projects:&#160;/Users/primus/git/teaparty/projects</text><text class="terminal-724540619-r1" x="976" y="556.8" textLength="12.2" clip-path="url(#terminal-724540619-line-22)">
</text><text class="terminal-724540619-r9" x="0" y="581.2" textLength="36.6" clip-path="url(#terminal-724540619-line-23)">&#160;n&#160;</text><text class="terminal-724540619-r2" x="36.6" y="581.2" textLength="146.4" clip-path="url(#terminal-724540619-line-23)">New&#160;Session&#160;</text><text class="terminal-724540619-r9" x="183" y="581.2" textLength="36.6" clip-path="url(#terminal-724540619-line-23)">&#160;p&#160;</text><text class="terminal-724540619-r2" x="219.6" y="581.2" textLength="146.4" clip-path="url(#terminal-724540619-line-23)">New&#160;Project&#160;</text><text class="terminal-724540619-r9" x="366" y="581.2" textLength="36.6" clip-path="url(#terminal-724540619-line-23)">&#160;d&#160;</text><text class="terminal-724540619-r2" x="402.6" y="581.2" textLength="146.4" clip-path="url(#terminal-724540619-line-23)">Diagnostics&#160;</text><text class="terminal-724540619-r9" x="549" y="581.2" textLength="36.6" clip-path="url(#terminal-724540619-line-23)">&#160;r&#160;</text><text class="terminal-724540619-r2" x="585.6" y="581.2" textLength="97.6" clip-path="url(#terminal-724540619-line-23)">Refresh&#160;</text><text class="terminal-724540619-r9" x="683.2" y="581.2" textLength="36.6" clip-path="url(#terminal-724540619-line-23)">&#160;q&#160;</text><text class="terminal-724540619-r2" x="719.8" y="581.2" textLength="61" clip-path="url(#terminal-724540619-line-23)">Quit&#160;</text><text class="terminal-724540619-r9" x="780.8" y="581.2" textLength="36.6" clip-path="url(#terminal-724540619-line-23)">&#160;f&#160;</text><text class="terminal-724540619-r2" x="817.4" y="581.2" textLength="12.2" clip-path="url(#terminal-724540619-line-23)">F</text><text class="terminal-724540619-r10" x="829.6" y="581.2" textLength="12.2" clip-path="url(#terminal-724540619-line-23)">▏</text><text class="terminal-724540619-r9" x="841.8" y="581.2" textLength="24.4" clip-path="url(#terminal-724540619-line-23)">^p</text><text class="terminal-724540619-r2" x="866.2" y="581.2" textLength="36.6" clip-path="url(#terminal-724540619-line-23)">&#160;pa</text><text class="terminal-724540619-r2" x="902.8" y="581.2" textLength="61" clip-path="url(#terminal-724540619-line-23)">lette</text>
    </g>
    </g>
</svg>
